<svg width="100" height="100" viewBox="0 0 100 100" fill="none" xmlns="http://www.w3.org/2000/svg">
<rect width="100" height="100" rx="10" fill="#4361EE"/>
<path d="M38.3333 55.8333C38.3333 55.8333 42.7083 61.6667 50 61.6667C57.2917 61.6667 61.6667 55.8333 61.6667 55.8333M58.75 41.25H58.7792M38.3333 41.25H44.1667M79.1667 50C79.1667 66.1083 66.1083 79.1667 50 79.1667C33.8917 79.1667 20.8333 66.1083 20.8333 50C20.8333 33.8917 33.8917 20.8333 50 20.8333C66.1083 20.8333 79.1667 33.8917 79.1667 50ZM60.2083 41.25C60.2083 42.0554 59.5554 42.7083 58.75 42.7083C57.9446 42.7083 57.2917 42.0554 57.2917 41.25C57.2917 40.4446 57.9446 39.7917 58.75 39.7917C59.5554 39.7917 60.2083 40.4446 60.2083 41.25Z" stroke="white" stroke-width="4.5" stroke-linecap="round" stroke-linejoin="round"/>
</svg>
